<svg width="28" height="28" viewBox="0 0 28 28" fill="none" xmlns="http://www.w3.org/2000/svg">
<g clip-path="url(#clip0_237_8866)">
<path d="M19.1596 18.7632C19.1596 19.1417 19.1596 19.5202 19.1596 19.8987C19.1596 20.1177 19.1707 20.3419 19.1417 20.5594C19.1517 20.4878 19.1616 20.4162 19.1715 20.3445C19.1483 20.5015 19.1064 20.6533 19.0456 20.7999C19.0731 20.7341 19.1006 20.6683 19.1281 20.6025C19.0667 20.7449 18.9892 20.8781 18.8957 21.0018C18.9389 20.9451 18.9821 20.8884 19.0254 20.8317C18.9309 20.9534 18.8234 21.0623 18.7029 21.1584C18.76 21.114 18.8171 21.0696 18.8741 21.0252C18.7452 21.1254 18.6056 21.2079 18.4557 21.2725C18.5247 21.2437 18.5937 21.2149 18.6627 21.1861C18.5083 21.2502 18.3479 21.2933 18.1822 21.3154C18.2563 21.3058 18.3305 21.2962 18.4047 21.2867C18.2086 21.31 18.0074 21.3012 17.8102 21.3012C17.4473 21.3012 17.0844 21.3012 16.7215 21.3012C15.591 21.3012 14.4605 21.3012 13.33 21.3012C12.2012 21.3012 11.0723 21.3012 9.94349 21.3012C9.58261 21.3012 9.22175 21.3012 8.86087 21.3012C8.65765 21.3012 8.45052 21.3102 8.24871 21.2833C8.32035 21.2932 8.39196 21.3031 8.46357 21.313C8.30659 21.2899 8.15477 21.248 8.0082 21.1872C8.07401 21.2147 8.1398 21.2422 8.2056 21.2697C8.06313 21.2083 7.93004 21.1307 7.80627 21.0372C7.863 21.0805 7.91974 21.1237 7.97646 21.1669C7.85476 21.0724 7.74583 20.9649 7.64972 20.8445C7.69411 20.9015 7.73851 20.9586 7.78291 21.0157C7.68275 20.8867 7.60021 20.7471 7.53558 20.5972C7.5644 20.6662 7.5932 20.7352 7.62202 20.8043C7.55791 20.6498 7.51487 20.4895 7.49277 20.3237C7.50232 20.3979 7.5119 20.472 7.52145 20.5462C7.49808 20.3501 7.50695 20.1489 7.50695 19.9517C7.50695 19.5888 7.50695 19.2259 7.50695 18.863C7.50695 17.7324 7.50695 16.602 7.50695 15.4715C7.50695 14.3426 7.50695 13.2137 7.50695 12.0848C7.50695 11.7239 7.50695 11.3631 7.50695 11.0022C7.50695 10.7989 7.4979 10.5918 7.5248 10.39C7.51489 10.4616 7.50498 10.5333 7.49505 10.6049C7.5182 10.4479 7.56011 10.2961 7.62094 10.1495C7.59342 10.2153 7.56592 10.2811 7.53841 10.3469C7.5998 10.2044 7.67734 10.0713 7.77086 9.94757C7.72763 10.0043 7.68439 10.061 7.64116 10.1178C7.73566 9.99606 7.84318 9.88711 7.96363 9.79101C7.90656 9.83541 7.84948 9.8798 7.79242 9.9242C7.92139 9.82407 8.06096 9.7415 8.21092 9.67687C8.14189 9.70569 8.07286 9.73449 8.00383 9.76331C8.1583 9.6992 8.31863 9.65616 8.48441 9.63406C8.41023 9.64361 8.33604 9.65319 8.26186 9.66275C8.58405 9.62435 8.92033 9.64824 9.24374 9.64824C9.82881 9.64824 10.4139 9.64824 10.999 9.64824C11.5511 9.64824 12.1032 9.64824 12.6553 9.64824C13.1111 9.64824 13.4951 9.27548 13.4981 8.81745C13.5012 8.36396 13.1232 7.97461 12.6674 7.97461C11.7779 7.97461 10.8884 7.97461 9.99893 7.97461C9.54541 7.97461 9.09189 7.97461 8.63837 7.97461C8.40687 7.97461 8.18117 7.99281 7.95118 8.03329C7.6855 8.08003 7.42266 8.19068 7.18774 8.31932C6.9568 8.44578 6.74047 8.61906 6.56071 8.81104C6.0733 9.33164 5.83337 10.0078 5.83337 10.7154C5.83337 10.9693 5.83337 11.2232 5.83337 11.4772C5.83337 12.509 5.83337 13.5408 5.83337 14.5727C5.83337 15.762 5.83337 16.9514 5.83337 18.1407C5.83337 18.8381 5.83337 19.5355 5.83337 20.2329C5.83337 20.4177 5.85537 20.5977 5.87993 20.7819C5.91592 21.0519 6.02375 21.3139 6.14376 21.5556C6.26101 21.7918 6.43317 22.0104 6.61743 22.1971C7.12979 22.7162 7.84191 22.9748 8.56319 22.9748C9.26055 22.9748 9.95793 22.9748 10.6553 22.9748C11.8446 22.9748 13.0339 22.9748 14.2232 22.9748C15.2551 22.9748 16.2869 22.9748 17.3187 22.9748C17.5726 22.9748 17.8265 22.9748 18.0804 22.9748C18.1764 22.9748 18.2716 22.9733 18.3674 22.9633C18.5334 22.9458 18.7004 22.9254 18.8621 22.8829C19.0292 22.839 19.1913 22.7662 19.3479 22.6962C19.5896 22.5881 19.8092 22.4179 20.0032 22.241C20.389 21.8892 20.6761 21.3736 20.7736 20.8613C20.8167 20.6344 20.8332 20.4115 20.8332 20.1828C20.8332 19.7315 20.8332 19.2802 20.8332 18.829C20.8332 17.9243 20.8332 17.0196 20.8332 16.1149C20.8332 16.1146 20.8332 16.1142 20.8332 16.1139C20.8332 15.6581 20.4605 15.2741 20.0025 15.2711C19.549 15.2681 19.1596 15.6461 19.1596 16.1019C19.1596 16.989 19.1596 17.8761 19.1596 18.7632Z" fill="#464646"/>
<path d="M17.6309 7.61549C18.7498 7.61655 19.8687 7.61759 20.9875 7.61864C21.3328 7.61897 21.678 7.61928 22.0233 7.61961C22.4613 7.62001 22.8303 7.25425 22.8332 6.806C22.8361 6.36158 22.4729 5.981 22.0349 5.9806C21.3684 5.97998 20.7019 5.97936 20.0355 5.97872C18.9166 5.97767 17.7978 5.97661 16.6789 5.97557C16.3337 5.97525 15.9884 5.97494 15.6431 5.97461C15.2052 5.97421 14.8362 6.33997 14.8333 6.78822C14.8304 7.23262 15.1936 7.6132 15.6315 7.61362C16.298 7.61424 16.9645 7.61486 17.6309 7.61549Z" fill="#464646"/>
<path d="M22.8291 11.1769C22.8302 10.0581 22.8312 8.93918 22.8323 7.82029C22.8326 7.47503 22.8329 7.12976 22.8332 6.78449C22.8337 6.34655 22.4679 5.97754 22.0196 5.97463C21.5752 5.97173 21.1947 6.33495 21.1943 6.77292C21.1936 7.4394 21.193 8.10587 21.1924 8.77236C21.1913 9.89123 21.1903 11.0101 21.1892 12.129C21.1889 12.4743 21.1886 12.8195 21.1882 13.1648C21.1878 13.6028 21.5536 13.9718 22.0018 13.9747C22.4462 13.9776 22.8268 13.6143 22.8272 13.1764C22.8278 12.5099 22.8285 11.8434 22.8291 11.1769Z" fill="#464646"/>
<path d="M14.1051 15.8786C14.7966 15.1872 15.4882 14.4957 16.1797 13.8042C17.0364 12.9475 17.8931 12.0908 18.7498 11.2342C19.5296 10.4543 20.3095 9.67452 21.0893 8.8947C21.5503 8.43374 22.0113 7.97279 22.4723 7.51184C22.5136 7.47055 22.5549 7.42928 22.5961 7.38798C22.9161 7.06804 22.9106 6.52861 22.5898 6.21155C22.2664 5.89192 21.735 5.8973 21.4144 6.21785C21.1301 6.50212 20.8459 6.78641 20.5616 7.07068C19.87 7.76218 19.1785 8.45365 18.487 9.14514C17.6303 10.0018 16.7736 10.8585 15.9169 11.7151C15.137 12.495 14.3572 13.2748 13.5773 14.0546C13.1164 14.5156 12.6554 14.9765 12.1944 15.4375C12.1531 15.4788 12.1118 15.5201 12.0705 15.5613C11.7506 15.8813 11.756 16.4207 12.0768 16.7378C12.4003 17.0574 12.9317 17.052 13.2523 16.7315C13.5366 16.4472 13.8208 16.1629 14.1051 15.8786Z" fill="#464646"/>
</g>
<defs>
<clipPath id="clip0_237_8866">
<rect width="28" height="28" fill="white"/>
</clipPath>
</defs>
</svg>
