<svg width="30" height="21" viewBox="0 0 30 21" fill="none" xmlns="http://www.w3.org/2000/svg">
<g clip-path="url(#clip0_237_8898)">
<path fill-rule="evenodd" clip-rule="evenodd" d="M28.3977 1.60152C27.9333 1.13711 27.355 0.802817 26.7208 0.632109C24.3852 2.38419e-07 15 0 15 0C15 0 5.61479 2.38419e-07 3.2792 0.632109C2.64499 0.802817 2.06674 1.13711 1.60233 1.60152C1.13791 2.06594 0.803624 2.64419 0.632915 3.27839C0.196809 5.66034 -0.0148219 8.07795 0.000806138 10.4994C-0.0148219 12.9209 0.196809 15.3385 0.632915 17.7205C0.803624 18.3547 1.13791 18.9329 1.60233 19.3973C2.06674 19.8618 2.64499 20.196 3.2792 20.3668C5.61479 20.9989 15 20.9989 15 20.9989C15 20.9989 24.3852 20.9989 26.7208 20.3668C27.355 20.196 27.9333 19.8618 28.3977 19.3973C28.8621 18.9329 29.1964 18.3547 29.3671 17.7205C29.8032 15.3385 30.0148 12.9209 29.9992 10.4994C30.0148 8.07795 29.8032 5.66034 29.3671 3.27839C29.1964 2.64419 28.8621 2.06594 28.3977 1.60152ZM12.0002 5.99968L19.789 10.4994L12.0002 14.9992V5.99968Z" fill="white"/>
</g>
<defs>
<clipPath id="clip0_237_8898">
<rect width="30" height="20.9989" fill="white"/>
</clipPath>
</defs>
</svg>
